<svg xmlns="http://www.w3.org/2000/svg" width="24" height="24" viewBox="0 0 24 24">
  <g id="MDI_linkedin" data-name="MDI / linkedin" transform="translate(-248 -577)">
    <g id="Boundary" transform="translate(248 577)" fill="#fff" stroke="rgba(0,0,0,0)" stroke-width="1" opacity="0">
      <rect width="24" height="24" stroke="none"/>
      <rect x="0.5" y="0.5" width="23" height="23" fill="none"/>
    </g>
    <path id="Path_linkedin" data-name="Path / linkedin" d="M19,3a2,2,0,0,1,2,2V19a2,2,0,0,1-2,2H5a2,2,0,0,1-2-2V5A2,2,0,0,1,5,3H19m-.5,15.5V13.2a3.26,3.26,0,0,0-3.26-3.26,2.9,2.9,0,0,0-2.32,1.3V10.13H10.13V18.5h2.79V13.57a1.4,1.4,0,1,1,2.79,0V18.5H18.5M6.88,8.56A1.685,1.685,0,1,0,5.19,6.88,1.68,1.68,0,0,0,6.88,8.56M8.27,18.5V10.13H5.5V18.5Z" transform="translate(248 577)" fill="#fff"/>
  </g>
</svg>
