<?xml version="1.0" encoding="utf-8"?>
<!-- Generator: Adobe Illustrator 26.1.0, SVG Export Plug-In . SVG Version: 6.00 Build 0)  -->
<svg version="1.1" id="Capa_1" xmlns="http://www.w3.org/2000/svg" xmlns:xlink="http://www.w3.org/1999/xlink" x="0px" y="0px"
	 viewBox="0 0 100 28" style="enable-background:new 0 0 100 28;" xml:space="preserve">
<style type="text/css">
	.st0{fill:#FFFFFF;}
	.st1{fill:#2A7AE4;}
	.st2{clip-path:url(#SVGID_00000127026971085514277810000007344846411799937171_);fill:#2A7AE4;}
</style>
<path class="st0" d="M72.8,17.9C72,18.7,71,19.1,70,19.1c-0.7,0-1.3-0.1-1.9-0.4c-0.6-0.3-1.1-0.6-1.5-1.1c-0.4-0.5-0.8-1-1-1.6
	c-0.2-0.6-0.4-1.3-0.4-2c0-0.7,0.1-1.3,0.4-1.9c0.3-0.6,0.6-1.1,1-1.6c0.4-0.5,1-0.8,1.6-1.1C68.7,9.2,69.4,9,70.1,9
	c0.9,0,1.8,0.2,2.4,0.6c0.7,0.4,1.2,0.9,1.5,1.6l-1.5,1.1c-0.3-0.5-0.6-0.9-1.1-1.1c-0.5-0.3-1-0.4-1.5-0.4c-0.4,0-0.8,0.1-1.2,0.3
	c-0.4,0.2-0.7,0.4-0.9,0.7c-0.2,0.3-0.4,0.7-0.6,1.1c-0.1,0.4-0.2,0.8-0.2,1.3c0,0.5,0.1,0.9,0.2,1.3c0.2,0.4,0.4,0.8,0.6,1.1
	c0.3,0.3,0.6,0.5,0.9,0.7c0.4,0.2,0.8,0.3,1.2,0.3c1,0,1.9-0.5,2.6-1.4v-0.7h-2v-1.4h3.7V19h-1.6V17.9z"/>
<path class="st0" d="M79.3,19.2c-0.6,0-1.1-0.1-1.6-0.3c-0.5-0.2-0.9-0.5-1.2-0.8c-0.3-0.3-0.6-0.7-0.8-1.2
	c-0.2-0.5-0.3-0.9-0.3-1.4c0-0.5,0.1-1,0.3-1.5c0.2-0.5,0.4-0.9,0.8-1.2c0.3-0.4,0.8-0.6,1.2-0.8c0.5-0.2,1-0.3,1.6-0.3
	s1.1,0.1,1.6,0.3c0.5,0.2,0.9,0.5,1.2,0.8c0.3,0.3,0.6,0.7,0.8,1.2c0.2,0.5,0.3,0.9,0.3,1.4c0,0.1,0,0.2,0,0.4c0,0.1,0,0.2,0,0.3
	h-5.8c0,0.3,0.1,0.5,0.2,0.8c0.1,0.2,0.3,0.4,0.4,0.6c0.2,0.2,0.4,0.3,0.6,0.4c0.2,0.1,0.5,0.1,0.7,0.1c0.4,0,0.7-0.1,1.1-0.3
	c0.3-0.2,0.6-0.4,0.7-0.7l1.6,0.4c-0.3,0.6-0.7,1-1.3,1.4C80.9,19,80.2,19.2,79.3,19.2z M81.3,14.8c0-0.6-0.3-1-0.6-1.3
	c-0.4-0.3-0.8-0.5-1.3-0.5c-0.3,0-0.5,0-0.7,0.1c-0.2,0.1-0.4,0.2-0.6,0.4c-0.2,0.2-0.3,0.4-0.4,0.6c-0.1,0.2-0.2,0.5-0.2,0.7H81.3z
	"/>
<path class="st0" d="M87.8,19.2c-0.6,0-1.1-0.1-1.6-0.3c-0.5-0.2-0.9-0.5-1.2-0.8c-0.3-0.3-0.6-0.7-0.8-1.2
	c-0.2-0.5-0.3-0.9-0.3-1.4c0-0.5,0.1-1,0.3-1.5c0.2-0.5,0.4-0.9,0.8-1.2c0.3-0.4,0.8-0.6,1.2-0.8c0.5-0.2,1-0.3,1.6-0.3
	c0.6,0,1.1,0.1,1.6,0.3c0.5,0.2,0.9,0.5,1.2,0.8c0.3,0.3,0.6,0.7,0.8,1.2c0.2,0.5,0.3,0.9,0.3,1.4c0,0.1,0,0.2,0,0.4
	c0,0.1,0,0.2,0,0.3h-5.8c0,0.3,0.1,0.5,0.2,0.8c0.1,0.2,0.3,0.4,0.4,0.6c0.2,0.2,0.4,0.3,0.6,0.4c0.2,0.1,0.5,0.1,0.7,0.1
	c0.4,0,0.7-0.1,1.1-0.3c0.3-0.2,0.6-0.4,0.7-0.7l1.6,0.4c-0.3,0.6-0.7,1-1.3,1.4C89.4,19,88.7,19.2,87.8,19.2z M89.8,14.8
	c0-0.6-0.3-1-0.6-1.3c-0.4-0.3-0.8-0.5-1.3-0.5c-0.3,0-0.5,0-0.7,0.1c-0.2,0.1-0.4,0.2-0.6,0.4c-0.2,0.2-0.3,0.4-0.4,0.6
	c-0.1,0.2-0.2,0.5-0.2,0.7H89.8z"/>
<path class="st0" d="M98,19l-2.2-3.2l-1,1V19h-1.9V8.8h1.9V15l3-3.3h2L97,14.8l3,4.2H98z"/>
<path class="st1" d="M32.3,9.1H34l3.8,9.9h-2l-0.9-2.5h-3.5L30.4,19h-2L32.3,9.1z M34.5,15.2l-1.4-3.9l-1.4,3.9H34.5z"/>
<path class="st1" d="M38.7,8.8h1.9v7.9c0,0.3,0.1,0.5,0.2,0.6c0.1,0.1,0.3,0.2,0.6,0.2c0.1,0,0.2,0,0.4-0.1c0.1,0,0.3-0.1,0.4-0.1
	l0.3,1.4c-0.3,0.1-0.6,0.2-0.9,0.3c-0.3,0.1-0.6,0.1-0.9,0.1c-0.6,0-1.1-0.2-1.4-0.5c-0.3-0.3-0.5-0.8-0.5-1.3V8.8z"/>
<path class="st1" d="M45.5,19.2c-0.8,0-1.3-0.2-1.7-0.7c-0.4-0.5-0.6-1.2-0.6-2.2v-4.6h1.9v4.2c0,1.1,0.4,1.7,1.2,1.7
	c0.4,0,0.7-0.1,1.1-0.3c0.4-0.2,0.6-0.6,0.9-1v-4.5h1.9v5.2c0,0.2,0,0.3,0.1,0.4c0.1,0.1,0.2,0.1,0.4,0.1V19c-0.2,0-0.4,0.1-0.5,0.1
	c-0.1,0-0.2,0-0.3,0c-0.3,0-0.6-0.1-0.8-0.2c-0.2-0.2-0.3-0.4-0.4-0.6l0-0.6c-0.3,0.5-0.8,0.9-1.3,1.1
	C46.7,19.1,46.2,19.2,45.5,19.2z"/>
<path class="st1" d="M56.5,13.3c-0.6,0-1.1,0.1-1.5,0.3c-0.5,0.2-0.8,0.5-1,0.9V19H52v-7.3h1.7v1.6c0.1-0.3,0.3-0.5,0.5-0.7
	c0.2-0.2,0.4-0.4,0.6-0.5c0.2-0.1,0.4-0.3,0.6-0.3c0.2-0.1,0.4-0.1,0.6-0.1c0.1,0,0.2,0,0.2,0c0.1,0,0.1,0,0.2,0V13.3z"/>
<path class="st1" d="M59.5,19.2c-0.4,0-0.7-0.1-1-0.2c-0.3-0.1-0.6-0.3-0.8-0.5c-0.2-0.2-0.4-0.5-0.5-0.7c-0.1-0.3-0.2-0.6-0.2-0.9
	c0-0.3,0.1-0.7,0.2-1c0.2-0.3,0.4-0.6,0.7-0.8c0.3-0.2,0.6-0.4,1-0.5c0.4-0.1,0.8-0.2,1.3-0.2c0.3,0,0.7,0,1,0.1
	c0.3,0.1,0.6,0.1,0.9,0.2v-0.4c0-0.5-0.1-0.9-0.4-1.1c-0.3-0.3-0.7-0.4-1.2-0.4c-0.4,0-0.8,0.1-1.2,0.2c-0.4,0.1-0.8,0.3-1.2,0.6
	l-0.6-1.2c1-0.6,2-0.9,3.1-0.9c1.1,0,1.9,0.3,2.5,0.8c0.6,0.5,0.9,1.3,0.9,2.2v2.3c0,0.2,0,0.3,0.1,0.4c0.1,0.1,0.2,0.1,0.4,0.1V19
	c-0.3,0.1-0.6,0.1-0.8,0.1c-0.4,0-0.6-0.1-0.8-0.2c-0.2-0.2-0.3-0.4-0.4-0.6l0-0.4c-0.3,0.4-0.7,0.8-1.2,1
	C60.5,19.1,60,19.2,59.5,19.2z M60,17.8c0.3,0,0.6-0.1,0.9-0.2c0.3-0.1,0.5-0.3,0.7-0.4c0.2-0.2,0.3-0.3,0.3-0.5v-0.8
	c-0.2-0.1-0.5-0.1-0.7-0.2c-0.3-0.1-0.5-0.1-0.8-0.1c-0.5,0-0.9,0.1-1.2,0.3c-0.3,0.2-0.5,0.5-0.5,0.8c0,0.3,0.1,0.6,0.4,0.8
	C59.3,17.7,59.6,17.8,60,17.8z"/>
<rect x="6" y="8.1" class="st0" width="16" height="8"/>
<g>
	<defs>
		<rect id="SVGID_1_" width="28.4" height="28"/>
	</defs>
	<clipPath id="SVGID_00000113352206098536972720000014507892572268473246_">
		<use xlink:href="#SVGID_1_"  style="overflow:visible;"/>
	</clipPath>
	<path style="clip-path:url(#SVGID_00000113352206098536972720000014507892572268473246_);fill:#2A7AE4;" d="M25.5,18.8l-1.3-8.9
		c-0.3-2.3-2.3-4-4.7-4H8.8c-2.4,0-4.4,1.7-4.7,4l-1.3,8.9c-0.3,1.8,1.1,3.4,3,3.4c0.8,0,1.6-0.3,2.1-0.9l2.7-2.6h7.1l2.7,2.6
		c0.6,0.6,1.3,0.9,2.1,0.9C24.4,22.2,25.8,20.6,25.5,18.8z M13,12.8h-2.4v2.3H9.5v-2.3H7.1v-1.2h2.4V9.3h1.2v2.3H13V12.8z
		 M17.8,11.7c-0.7,0-1.2-0.5-1.2-1.2c0-0.6,0.5-1.2,1.2-1.2c0.7,0,1.2,0.5,1.2,1.2C18.9,11.1,18.4,11.7,17.8,11.7z M20.1,15.2
		c-0.7,0-1.2-0.5-1.2-1.2s0.5-1.2,1.2-1.2c0.7,0,1.2,0.5,1.2,1.2S20.8,15.2,20.1,15.2z"/>
</g>
</svg>
