<svg fill="#EBEBEB" xmlns="http://www.w3.org/2000/svg"  viewBox="0 0 64 64" width="64px" height="64px"><path d="M 32 7.0039062 C 16 7.0039062 8 23 8 29 C 8 31.595869 9.8483358 33.537584 11.767578 34.861328 C 10.785597 35.9006 10 37.455714 10 39.435547 C 10 42.217121 11.385469 44.246178 12.705078 45.367188 C 13.40396 45.960887 13.618159 45.942396 14.138672 46.185547 C 14.483364 49.757735 16.208287 52.243196 18.1875 53.582031 C 20.38947 55.071549 22.777111 55.636225 23.333984 55.939453 C 25.471367 57.103071 27.459244 59 32 59 C 36.540756 59 38.528633 57.103071 40.666016 55.939453 C 41.222889 55.636225 43.61053 55.071549 45.8125 53.582031 C 47.791713 52.243196 49.516636 49.757735 49.861328 46.185547 C 50.381841 45.942396 50.59604 45.960888 51.294922 45.367188 C 52.614531 44.246178 54 42.217121 54 39.435547 C 54 37.455714 53.214403 35.9006 52.232422 34.861328 C 54.151664 33.537584 56 31.595869 56 29 C 56 23 48 7.0039062 32 7.0039062 z M 29 11 L 32 13.5 L 35 11 L 39 17.591797 L 36.550781 19.244141 L 34.441406 14.324219 L 32 17 L 29.558594 14.324219 L 27.449219 19.244141 L 25 17.591797 L 29 11 z M 32 23 C 36.517322 23 40.25513 23.799963 42.666016 25.003906 C 43.953937 25.647066 44.805241 26.32559 45.330078 27.041016 C 44.990599 27.187806 44.600385 27.344769 44.103516 27.507812 C 41.92321 28.223264 38.13472 29 32 29 C 25.86528 29 22.07679 28.223264 19.896484 27.507812 C 19.399615 27.344769 19.009401 27.187806 18.669922 27.041016 C 19.194759 26.32559 20.046063 25.647066 21.333984 25.003906 C 23.74487 23.799963 27.482678 23 32 23 z M 18 31.060547 C 18.224519 31.143433 18.396968 31.226076 18.648438 31.308594 C 21.316631 32.184142 25.52872 33 32 33 C 38.47128 33 42.683369 32.184142 45.351562 31.308594 C 45.603032 31.226076 45.775481 31.143433 46 31.060547 L 46 36.945312 L 47.943359 37 C 47.943359 37 48.485197 37.03661 49.011719 37.335938 C 49.538241 37.635264 50 37.89026 50 39.435547 C 50 40.985973 49.385469 41.740368 48.705078 42.318359 C 48.024688 42.896351 47.412109 43.087891 47.412109 43.087891 L 46 43.523438 L 46 45 C 46 48.178494 44.957046 49.332799 43.572266 50.269531 C 42.187486 51.206263 40.430079 51.51201 38.751953 52.425781 C 36.003336 53.922163 35.561244 55 32 55 C 28.438756 55 27.996664 53.922163 25.248047 52.425781 C 23.569921 51.51201 21.812514 51.206263 20.427734 50.269531 C 19.042954 49.332799 18 48.178494 18 45 L 18 43.523438 L 16.587891 43.087891 C 16.587891 43.087891 15.975312 42.896351 15.294922 42.318359 C 14.614531 41.740368 14 40.985973 14 39.435547 C 14 37.89026 14.461759 37.635264 14.988281 37.335938 C 15.514803 37.03661 16.056641 37 16.056641 37 L 18 36.945312 L 18 31.060547 z M 26 35 A 2 3 0 0 0 26 41 A 2 3 0 0 0 26 35 z M 38 35 A 2 3 0 0 0 38 41 A 2 3 0 0 0 38 35 z M 21 40 C 21 40 20 41.386 20 43 C 20 45.774 22.316406 46.146484 22.316406 46.146484 C 22.316406 46.146484 22.724 49 26 49 C 26.678 50.439 28.07 51 29.5 51 C 30.812 51 32 50 32 50 C 32 50 33.188 51 34.5 51 C 35.93 51 37.322 50.439 38 49 C 41.276 49 41.683594 46.146484 41.683594 46.146484 C 41.683594 46.146484 44 45.774 44 43 C 44 41.386 43 40 43 40 C 43 40 41.434 41.726 38 43 C 38 45.673 35.144 47 32 47 C 28.856 47 26 45.673 26 43 C 22.566 41.726 21 40 21 40 z"/></svg>